<?xml version="1.0" standalone="no"?>
<!DOCTYPE svg PUBLIC "-//W3C//DTD SVG 1.1//EN" "http://www.w3.org/Graphics/SVG/1.1/DTD/svg11.dtd">
<svg width="100%" height="100%" viewBox="0 0 2880 1910" version="1.1" xmlns="http://www.w3.org/2000/svg" xmlns:xlink="http://www.w3.org/1999/xlink" xml:space="preserve" style="fill-rule:evenodd;clip-rule:evenodd;stroke-linejoin:round;stroke-miterlimit:1.41421;">
    <g id="v">
        <g>
            <g transform="matrix(1,0,0,0.746094,0,0)">
                <rect x="0" y="0" width="2880" height="2560" style="fill:white;fill-rule:nonzero;"/>
            </g>
            <g id="Numbers" transform="matrix(2.87928,0,0,2.87928,154.553,345.673)">
                <g transform="matrix(0.125338,0,0,0.125338,270.304,58.4178)">
                    <path d="M372.768,845.621L369.469,845.621L312.409,762.781L312.043,762.903L312.043,845.621L308.683,845.621L308.683,756.672L312.043,756.672L369.102,839.329L369.469,839.207L369.469,756.672L372.768,756.672L372.768,845.621Z" style="fill:black;fill-rule:nonzero;"/>
                    <path d="M418.037,846.904C410.502,846.904 403.996,843.86 398.518,837.771C393.04,831.682 390.301,824.117 390.301,815.076L390.301,811.166C390.301,801.676 392.948,793.826 398.243,787.615C403.538,781.404 410.074,778.298 417.853,778.298C425.307,778.298 431.385,780.742 436.089,785.629C440.793,790.517 443.145,797.074 443.145,805.301L443.145,810.371L393.6,810.371L393.6,815.076C393.6,823.058 395.942,829.809 400.626,835.327C405.309,840.846 411.113,843.605 418.037,843.605C422.965,843.605 427.088,842.933 430.408,841.589C433.727,840.245 436.568,838.229 438.93,835.541L440.702,838.107C438.095,840.999 434.928,843.188 431.202,844.674C427.475,846.161 423.087,846.904 418.037,846.904ZM417.853,781.597C411.296,781.597 405.839,783.99 401.481,788.776C397.123,793.561 394.659,799.538 394.089,806.706L394.272,807.073L439.846,807.073L439.846,805.056C439.846,798.336 437.81,792.747 433.737,788.287C429.664,783.827 424.37,781.597 417.853,781.597Z" style="fill:black;fill-rule:nonzero;"/>
                    <path d="M477.906,808.844L498.983,779.52L503.137,779.52L479.922,811.715L504.359,845.621L500.266,845.621L477.845,814.587L455.486,845.621L451.393,845.621L475.829,811.715L452.614,779.52L456.769,779.52L477.906,808.844Z" style="fill:black;fill-rule:nonzero;"/>
                    <path d="M562.701,833.77C560.624,837.964 557.661,841.202 553.813,843.483C549.964,845.764 545.29,846.904 539.792,846.904C532.991,846.904 527.665,844.491 523.817,839.665C519.968,834.839 518.044,827.355 518.044,817.214L518.044,779.52L521.342,779.52L521.342,817.336C521.342,826.296 522.992,832.914 526.291,837.191C529.59,841.467 534.049,843.605 539.67,843.605C546.553,843.605 551.837,841.915 555.523,838.535C559.209,835.154 561.561,830.674 562.579,825.095L562.579,779.52L565.939,779.52L565.939,845.621L563.19,845.621L562.701,833.77Z" style="fill:black;fill-rule:nonzero;"/>
                    <path d="M627.275,829.432C627.275,825.929 625.778,822.742 622.785,819.871C619.791,817 614.568,814.75 607.115,813.121C599.255,811.451 593.563,809.302 590.04,806.675C586.517,804.048 584.755,800.149 584.755,794.976C584.755,790.252 586.751,786.291 590.742,783.094C594.734,779.897 600.11,778.298 606.871,778.298C614.161,778.298 619.903,780.009 624.098,783.43C628.293,786.851 630.289,791.311 630.085,796.809L629.963,797.176L627.153,797.176C627.153,792.859 625.33,789.183 621.685,786.149C618.04,783.114 613.102,781.597 606.871,781.597C600.68,781.597 595.996,782.931 592.82,785.599C589.643,788.267 588.054,791.352 588.054,794.854C588.054,798.316 589.398,801.269 592.086,803.712C594.774,806.156 600.11,808.294 608.092,810.127C615.464,811.838 621.054,814.169 624.862,817.122C628.67,820.075 630.574,824.199 630.574,829.493C630.574,834.666 628.456,838.86 624.221,842.078C619.985,845.295 614.364,846.904 607.359,846.904C599.662,846.904 593.624,845.183 589.246,841.742C584.867,838.3 582.821,834.116 583.106,829.188L583.228,828.821L585.916,828.821C586.242,834.034 588.482,837.802 592.636,840.123C596.79,842.445 601.698,843.605 607.359,843.605C613.468,843.605 618.315,842.18 621.899,839.329C625.483,836.478 627.275,833.179 627.275,829.432Z" style="fill:black;fill-rule:nonzero;"/>
                    <path d="M706.511,755.389C709.606,755.389 712.63,755.725 715.583,756.397C718.536,757.069 721.315,758.159 723.922,759.665L722.639,762.781C719.951,761.234 717.456,760.164 715.155,759.574C712.854,758.983 709.973,758.688 706.511,758.688C699.709,758.688 693.946,761.274 689.222,766.447C684.498,771.619 682.135,778.441 682.135,786.912L682.135,802.491C684.05,798.051 687.114,794.386 691.33,791.494C695.545,788.603 700.422,787.157 705.961,787.157C713.984,787.157 720.277,789.926 724.838,795.465C729.4,801.004 731.681,808.355 731.681,817.519C731.681,825.95 729.206,832.955 724.258,838.535C719.31,844.114 713.007,846.904 705.35,846.904C697.612,846.904 691.258,843.941 686.29,838.015C681.321,832.089 678.836,824.199 678.836,814.342L678.836,786.973C678.836,777.728 681.514,770.153 686.87,764.247C692.226,758.342 698.773,755.389 706.511,755.389ZM682.135,811.654L682.135,814.281C682.135,823.078 684.294,830.175 688.611,835.572C692.928,840.968 698.508,843.666 705.35,843.666C712.152,843.666 717.691,841.1 721.967,835.969C726.243,830.837 728.382,824.687 728.382,817.519C728.382,809.292 726.427,802.725 722.517,797.817C718.607,792.909 712.946,790.456 705.533,790.456C699.302,790.456 693.855,792.543 689.191,796.718C684.528,800.892 682.196,805.871 682.196,811.654L682.135,811.654Z" style="fill:black;fill-rule:nonzero;"/>
                </g>
                <g transform="matrix(0.125338,0,0,0.125338,126.426,58.4178)">
                    <path d="M372.768,845.621L369.469,845.621L312.409,762.781L312.043,762.903L312.043,845.621L308.683,845.621L308.683,756.672L312.043,756.672L369.102,839.329L369.469,839.207L369.469,756.672L372.768,756.672L372.768,845.621Z" style="fill:black;fill-rule:nonzero;"/>
                    <path d="M418.037,846.904C410.502,846.904 403.996,843.86 398.518,837.771C393.04,831.682 390.301,824.117 390.301,815.076L390.301,811.166C390.301,801.676 392.948,793.826 398.243,787.615C403.538,781.404 410.074,778.298 417.853,778.298C425.307,778.298 431.385,780.742 436.089,785.629C440.793,790.517 443.145,797.074 443.145,805.301L443.145,810.371L393.6,810.371L393.6,815.076C393.6,823.058 395.942,829.809 400.626,835.327C405.309,840.846 411.113,843.605 418.037,843.605C422.965,843.605 427.088,842.933 430.408,841.589C433.727,840.245 436.568,838.229 438.93,835.541L440.702,838.107C438.095,840.999 434.928,843.188 431.202,844.674C427.475,846.161 423.087,846.904 418.037,846.904ZM417.853,781.597C411.296,781.597 405.839,783.99 401.481,788.776C397.123,793.561 394.659,799.538 394.089,806.706L394.272,807.073L439.846,807.073L439.846,805.056C439.846,798.336 437.81,792.747 433.737,788.287C429.664,783.827 424.37,781.597 417.853,781.597Z" style="fill:black;fill-rule:nonzero;"/>
                    <path d="M477.906,808.844L498.983,779.52L503.137,779.52L479.922,811.715L504.359,845.621L500.266,845.621L477.845,814.587L455.486,845.621L451.393,845.621L475.829,811.715L452.614,779.52L456.769,779.52L477.906,808.844Z" style="fill:black;fill-rule:nonzero;"/>
                    <path d="M562.701,833.77C560.624,837.964 557.661,841.202 553.813,843.483C549.964,845.764 545.29,846.904 539.792,846.904C532.991,846.904 527.665,844.491 523.817,839.665C519.968,834.839 518.044,827.355 518.044,817.214L518.044,779.52L521.342,779.52L521.342,817.336C521.342,826.296 522.992,832.914 526.291,837.191C529.59,841.467 534.049,843.605 539.67,843.605C546.553,843.605 551.837,841.915 555.523,838.535C559.209,835.154 561.561,830.674 562.579,825.095L562.579,779.52L565.939,779.52L565.939,845.621L563.19,845.621L562.701,833.77Z" style="fill:black;fill-rule:nonzero;"/>
                    <path d="M627.275,829.432C627.275,825.929 625.778,822.742 622.785,819.871C619.791,817 614.568,814.75 607.115,813.121C599.255,811.451 593.563,809.302 590.04,806.675C586.517,804.048 584.755,800.149 584.755,794.976C584.755,790.252 586.751,786.291 590.742,783.094C594.734,779.897 600.11,778.298 606.871,778.298C614.161,778.298 619.903,780.009 624.098,783.43C628.293,786.851 630.289,791.311 630.085,796.809L629.963,797.176L627.153,797.176C627.153,792.859 625.33,789.183 621.685,786.149C618.04,783.114 613.102,781.597 606.871,781.597C600.68,781.597 595.996,782.931 592.82,785.599C589.643,788.267 588.054,791.352 588.054,794.854C588.054,798.316 589.398,801.269 592.086,803.712C594.774,806.156 600.11,808.294 608.092,810.127C615.464,811.838 621.054,814.169 624.862,817.122C628.67,820.075 630.574,824.199 630.574,829.493C630.574,834.666 628.456,838.86 624.221,842.078C619.985,845.295 614.364,846.904 607.359,846.904C599.662,846.904 593.624,845.183 589.246,841.742C584.867,838.3 582.821,834.116 583.106,829.188L583.228,828.821L585.916,828.821C586.242,834.034 588.482,837.802 592.636,840.123C596.79,842.445 601.698,843.605 607.359,843.605C613.468,843.605 618.315,842.18 621.899,839.329C625.483,836.478 627.275,833.179 627.275,829.432Z" style="fill:black;fill-rule:nonzero;"/>
                    <path d="M729.97,759.971C721.214,770.153 713.771,781.77 707.641,794.824C701.512,807.877 697.53,822.956 695.698,840.062L695.331,845.621L692.032,845.621L692.399,840.062C694.15,824.015 697.887,809.374 703.609,796.137C709.331,782.901 716.795,770.845 725.999,759.971L673.155,759.971L673.155,756.672L729.97,756.672L729.97,759.971Z" style="fill:black;fill-rule:nonzero;"/>
                    <path d="M829.427,845.621L776.216,845.621L776.216,842.322L805.357,808.722C810.896,802.328 814.938,796.809 817.484,792.166C820.029,787.523 821.302,783.226 821.302,779.276C821.302,772.8 819.51,767.75 815.926,764.125C812.342,760.5 807.108,758.688 800.225,758.688C792.935,758.688 787.294,760.826 783.303,765.103C779.312,769.379 777.316,774.918 777.316,781.72L774.506,781.72L774.384,781.353C774.18,774.144 776.45,768.015 781.195,762.964C785.94,757.914 792.283,755.389 800.225,755.389C807.597,755.389 813.513,757.476 817.972,761.651C822.432,765.826 824.662,771.701 824.662,779.276C824.662,784.204 823.063,789.234 819.866,794.365C816.669,799.497 812.158,805.464 806.334,812.265L780.859,842.017L780.981,842.322L829.427,842.322L829.427,845.621Z" style="fill:black;fill-rule:nonzero;"/>
                    <path d="M898.094,810.555C898.094,822.162 895.742,831.122 891.038,837.435C886.334,843.748 879.685,846.904 871.091,846.904C862.498,846.904 855.819,843.738 851.053,837.404C846.288,831.071 843.906,822.121 843.906,810.555L843.906,791.739C843.906,780.172 846.268,771.222 850.992,764.889C855.717,758.556 862.376,755.389 870.969,755.389C879.563,755.389 886.232,758.556 890.977,764.889C895.722,771.222 898.094,780.172 898.094,791.739L898.094,810.555ZM894.795,791.739C894.795,781.394 892.759,773.299 888.686,767.455C884.613,761.61 878.708,758.688 870.969,758.688C863.231,758.688 857.336,761.61 853.283,767.455C849.231,773.299 847.205,781.394 847.205,791.739L847.205,810.433C847.205,820.696 849.251,828.791 853.344,834.716C857.437,840.642 863.353,843.605 871.091,843.605C878.789,843.605 884.664,840.652 888.716,834.747C892.769,828.841 894.795,820.737 894.795,810.433L894.795,791.739Z" style="fill:black;fill-rule:nonzero;"/>
                    <path d="M946.906,846.415L943.607,846.415L943.607,759.36L919.293,764.125L919.293,761.315L946.906,756.183L946.906,846.415Z" style="fill:black;fill-rule:nonzero;"/>
                    <path d="M1000.61,798.52L1007.39,798.52C1014.84,798.52 1020.71,796.667 1024.98,792.96C1029.26,789.254 1031.4,784.693 1031.4,779.276C1031.4,773.289 1029.55,768.361 1025.87,764.492C1022.18,760.623 1016.75,758.688 1009.59,758.688C1002.99,758.688 997.51,760.623 993.152,764.492C988.794,768.361 986.616,773.513 986.616,779.948L983.805,779.948L983.683,779.581C983.479,772.373 985.893,766.538 990.922,762.079C995.952,757.619 1002.17,755.389 1009.59,755.389C1017.24,755.389 1023.34,757.558 1027.88,761.895C1032.42,766.233 1034.69,772.108 1034.69,779.52C1034.69,784.204 1033.22,788.399 1030.27,792.105C1027.31,795.811 1023.33,798.479 1018.32,800.108C1024.11,801.534 1028.61,804.12 1031.82,807.867C1035.04,811.614 1036.65,816.338 1036.65,822.04C1036.65,829.778 1034.18,835.857 1029.26,840.276C1024.33,844.695 1017.96,846.904 1010.14,846.904C1002.6,846.904 995.942,844.674 990.159,840.215C984.376,835.755 981.586,829.432 981.789,821.246L981.911,820.879L984.722,820.879C984.722,827.477 987.135,832.914 991.961,837.191C996.787,841.467 1002.85,843.605 1010.14,843.605C1017.47,843.605 1023.17,841.722 1027.24,837.954C1031.31,834.187 1033.35,828.964 1033.35,822.284C1033.35,815.361 1031.02,810.239 1026.36,806.92C1021.69,803.6 1015.37,801.941 1007.39,801.941L1000.61,801.941L1000.61,798.52Z" style="fill:black;fill-rule:nonzero;"/>
                </g>
                <g transform="matrix(0.125338,0,0,0.125338,474.836,58.4982)">
                    <path d="M313.387,756.672L349.797,840.367L350.164,840.367L386.697,756.672L391.523,756.672L391.523,845.621L388.224,845.621L388.224,762.476L387.857,762.354L351.325,845.621L348.698,845.621L312.348,762.781L311.982,762.903L311.982,845.621L308.683,845.621L308.683,756.672L313.387,756.672Z" style="fill:black;fill-rule:nonzero;"/>
                    <path d="M409.056,811.288C409.056,801.595 411.734,793.673 417.09,787.523C422.445,781.373 429.4,778.298 437.953,778.298C446.546,778.298 453.521,781.373 458.876,787.523C464.232,793.673 466.91,801.595 466.91,811.288L466.91,813.854C466.91,823.588 464.232,831.529 458.876,837.679C453.521,843.829 446.587,846.904 438.075,846.904C429.481,846.904 422.496,843.829 417.12,837.679C411.744,831.529 409.056,823.588 409.056,813.854L409.056,811.288ZM412.355,813.854C412.355,822.162 414.677,829.198 419.32,834.961C423.963,840.724 430.214,843.605 438.075,843.605C445.813,843.605 452.004,840.714 456.647,834.93C461.289,829.147 463.611,822.121 463.611,813.854L463.611,811.288C463.611,803.183 461.269,796.208 456.585,790.364C451.902,784.52 445.691,781.597 437.953,781.597C430.174,781.597 423.963,784.52 419.32,790.364C414.677,796.208 412.355,803.183 412.355,811.288L412.355,813.854Z" style="fill:black;fill-rule:nonzero;"/>
                    <path d="M489.575,761.682L489.575,779.52L505.825,779.52L505.825,782.88L489.575,782.88L489.575,828.577C489.575,833.994 490.491,837.852 492.324,840.154C494.157,842.455 496.58,843.605 499.594,843.605C500.694,843.605 501.671,843.565 502.526,843.483C503.382,843.402 504.563,843.259 506.07,843.055L506.68,846.049C505.662,846.375 504.603,846.599 503.504,846.721C502.404,846.843 501.162,846.904 499.777,846.904C495.338,846.904 491.968,845.458 489.666,842.567C487.365,839.675 486.215,835.012 486.215,828.577L486.215,782.88L473.997,782.88L473.997,779.52L486.215,779.52L486.215,761.682L489.575,761.682Z" style="fill:black;fill-rule:nonzero;"/>
                    <path d="M516.211,811.288C516.211,801.595 518.889,793.673 524.244,787.523C529.6,781.373 536.554,778.298 545.107,778.298C553.701,778.298 560.675,781.373 566.031,787.523C571.387,793.673 574.064,801.595 574.064,811.288L574.064,813.854C574.064,823.588 571.387,831.529 566.031,837.679C560.675,843.829 553.741,846.904 545.229,846.904C536.636,846.904 529.651,843.829 524.275,837.679C518.899,831.529 516.211,823.588 516.211,813.854L516.211,811.288ZM519.51,813.854C519.51,822.162 521.831,829.198 526.474,834.961C531.117,840.724 537.369,843.605 545.229,843.605C552.967,843.605 559.158,840.714 563.801,834.93C568.444,829.147 570.765,822.121 570.765,813.854L570.765,811.288C570.765,803.183 568.424,796.208 563.74,790.364C559.056,784.52 552.845,781.597 545.107,781.597C537.328,781.597 531.117,784.52 526.474,790.364C521.831,796.208 519.51,803.183 519.51,811.288L519.51,813.854Z" style="fill:black;fill-rule:nonzero;"/>
                    <path d="M646.58,797.664L675.354,756.672L679.447,756.672L648.718,800.23L680.73,845.621L676.637,845.621L646.58,802.796L616.584,845.621L612.552,845.621L644.564,800.23L613.774,756.672L617.928,756.672L646.58,797.664Z" style="fill:black;fill-rule:nonzero;"/>
                    <path d="M776.522,845.621L723.311,845.621L723.311,842.322L752.452,808.722C757.991,802.328 762.033,796.809 764.578,792.166C767.124,787.523 768.397,783.226 768.397,779.276C768.397,772.8 766.605,767.75 763.021,764.125C759.436,760.5 754.203,758.688 747.32,758.688C740.03,758.688 734.389,760.826 730.398,765.103C726.406,769.379 724.411,774.918 724.411,781.72L721.6,781.72L721.478,781.353C721.275,774.144 723.545,768.015 728.29,762.964C733.035,757.914 739.378,755.389 747.32,755.389C754.692,755.389 760.607,757.476 765.067,761.651C769.527,765.826 771.757,771.701 771.757,779.276C771.757,784.204 770.158,789.234 766.961,794.365C763.764,799.497 759.253,805.464 753.429,812.265L727.954,842.017L728.076,842.322L776.522,842.322L776.522,845.621Z" style="fill:black;fill-rule:nonzero;"/>
                    <path d="M845.189,810.555C845.189,822.162 842.837,831.122 838.133,837.435C833.429,843.748 826.78,846.904 818.186,846.904C809.593,846.904 802.913,843.738 798.148,837.404C793.383,831.071 791,822.121 791,810.555L791,791.739C791,780.172 793.363,771.222 798.087,764.889C802.811,758.556 809.47,755.389 818.064,755.389C826.658,755.389 833.327,758.556 838.071,764.889C842.816,771.222 845.189,780.172 845.189,791.739L845.189,810.555ZM841.89,791.739C841.89,781.394 839.853,773.299 835.781,767.455C831.708,761.61 825.802,758.688 818.064,758.688C810.326,758.688 804.43,761.61 800.378,767.455C796.326,773.299 794.299,781.394 794.299,791.739L794.299,810.433C794.299,820.696 796.346,828.791 800.439,834.716C804.532,840.642 810.448,843.605 818.186,843.605C825.884,843.605 831.759,840.652 835.811,834.747C839.863,828.841 841.89,820.737 841.89,810.433L841.89,791.739Z" style="fill:black;fill-rule:nonzero;"/>
                    <path d="M894.001,846.415L890.702,846.415L890.702,759.36L866.387,764.125L866.387,761.315L894.001,756.183L894.001,846.415Z" style="fill:black;fill-rule:nonzero;"/>
                    <path d="M973.664,818.069L989.059,818.069L989.059,821.368L973.664,821.368L973.664,845.621L970.365,845.621L970.365,821.368L927.235,821.368L927.235,819.535L969.693,756.672L973.664,756.672L973.664,818.069ZM932.366,818.069L970.365,818.069L970.365,761.315L969.999,761.193L965.233,769.074L932.366,818.069Z" style="fill:black;fill-rule:nonzero;"/>
                </g>
                <g transform="matrix(0.125338,0,0,0.125338,604.508,58.4178)">
                    <path d="M312.043,842.322L357.678,842.322L357.678,845.621L308.683,845.621L308.683,756.672L312.043,756.672L312.043,842.322Z" style="fill:black;fill-rule:nonzero;"/>
                    <path d="M435.936,836.091C434.063,838.698 430.469,841.151 425.154,843.453C419.839,845.754 413.312,846.904 405.574,846.904C395.392,846.904 387.135,843.279 380.801,836.03C374.468,828.78 371.302,819.352 371.302,807.745L371.302,793.205C371.302,782.045 374.377,772.953 380.526,765.927C386.676,758.902 394.679,755.389 404.535,755.389C413.944,755.389 421.407,757.823 426.925,762.69C432.444,767.556 435.264,773.839 435.387,781.536L435.264,781.903L432.515,781.903C432.19,775.02 429.654,769.43 424.909,765.133C420.165,760.836 413.373,758.688 404.535,758.688C395.535,758.688 388.295,761.895 382.817,768.31C377.34,774.725 374.601,782.982 374.601,793.083L374.601,807.745C374.601,818.334 377.431,826.958 383.092,833.617C388.753,840.276 396.247,843.605 405.574,843.605C412.131,843.605 417.864,842.648 422.771,840.734C427.679,838.82 430.968,836.763 432.638,834.564L432.638,808.661L405.452,808.661L405.452,805.301L435.936,805.301L435.936,836.091Z" style="fill:black;fill-rule:nonzero;"/>
                    <path d="M551.766,836.091C549.893,838.698 546.298,841.151 540.983,843.453C535.668,845.754 529.142,846.904 521.404,846.904C511.222,846.904 502.964,843.279 496.631,836.03C490.298,828.78 487.131,819.352 487.131,807.745L487.131,793.205C487.131,782.045 490.206,772.953 496.356,765.927C502.506,758.902 510.509,755.389 520.365,755.389C529.773,755.389 537.236,757.823 542.755,762.69C548.274,767.556 551.094,773.839 551.216,781.536L551.094,781.903L548.345,781.903C548.019,775.02 545.484,769.43 540.739,765.133C535.994,760.836 529.203,758.688 520.365,758.688C511.364,758.688 504.125,761.895 498.647,768.31C493.169,774.725 490.43,782.982 490.43,793.083L490.43,807.745C490.43,818.334 493.261,826.958 498.922,833.617C504.583,840.276 512.077,843.605 521.404,843.605C527.961,843.605 533.693,842.648 538.601,840.734C543.508,838.82 546.797,836.763 548.467,834.564L548.467,808.661L521.281,808.661L521.281,805.301L551.766,805.301L551.766,836.091Z" style="fill:black;fill-rule:nonzero;"/>
                    <path d="M614.202,818.069L629.597,818.069L629.597,821.368L614.202,821.368L614.202,845.621L610.903,845.621L610.903,821.368L567.772,821.368L567.772,819.535L610.231,756.672L614.202,756.672L614.202,818.069ZM572.904,818.069L610.903,818.069L610.903,761.315L610.536,761.193L605.771,769.074L572.904,818.069Z" style="fill:black;fill-rule:nonzero;"/>
                </g>
                <g transform="matrix(0.125338,0,0,0.125338,-15.5473,58.4178)">
                    <path d="M372.768,845.621L369.469,845.621L312.409,762.781L312.043,762.903L312.043,845.621L308.683,845.621L308.683,756.672L312.043,756.672L369.102,839.329L369.469,839.207L369.469,756.672L372.768,756.672L372.768,845.621Z" style="fill:black;fill-rule:nonzero;"/>
                    <path d="M418.037,846.904C410.502,846.904 403.996,843.86 398.518,837.771C393.04,831.682 390.301,824.117 390.301,815.076L390.301,811.166C390.301,801.676 392.948,793.826 398.243,787.615C403.538,781.404 410.074,778.298 417.853,778.298C425.307,778.298 431.385,780.742 436.089,785.629C440.793,790.517 443.145,797.074 443.145,805.301L443.145,810.371L393.6,810.371L393.6,815.076C393.6,823.058 395.942,829.809 400.626,835.327C405.309,840.846 411.113,843.605 418.037,843.605C422.965,843.605 427.088,842.933 430.408,841.589C433.727,840.245 436.568,838.229 438.93,835.541L440.702,838.107C438.095,840.999 434.928,843.188 431.202,844.674C427.475,846.161 423.087,846.904 418.037,846.904ZM417.853,781.597C411.296,781.597 405.839,783.99 401.481,788.776C397.123,793.561 394.659,799.538 394.089,806.706L394.272,807.073L439.846,807.073L439.846,805.056C439.846,798.336 437.81,792.747 433.737,788.287C429.664,783.827 424.37,781.597 417.853,781.597Z" style="fill:black;fill-rule:nonzero;"/>
                    <path d="M477.906,808.844L498.983,779.52L503.137,779.52L479.922,811.715L504.359,845.621L500.266,845.621L477.845,814.587L455.486,845.621L451.393,845.621L475.829,811.715L452.614,779.52L456.769,779.52L477.906,808.844Z" style="fill:black;fill-rule:nonzero;"/>
                    <path d="M562.701,833.77C560.624,837.964 557.661,841.202 553.813,843.483C549.964,845.764 545.29,846.904 539.792,846.904C532.991,846.904 527.665,844.491 523.817,839.665C519.968,834.839 518.044,827.355 518.044,817.214L518.044,779.52L521.342,779.52L521.342,817.336C521.342,826.296 522.992,832.914 526.291,837.191C529.59,841.467 534.049,843.605 539.67,843.605C546.553,843.605 551.837,841.915 555.523,838.535C559.209,835.154 561.561,830.674 562.579,825.095L562.579,779.52L565.939,779.52L565.939,845.621L563.19,845.621L562.701,833.77Z" style="fill:black;fill-rule:nonzero;"/>
                    <path d="M627.275,829.432C627.275,825.929 625.778,822.742 622.785,819.871C619.791,817 614.568,814.75 607.115,813.121C599.255,811.451 593.563,809.302 590.04,806.675C586.517,804.048 584.755,800.149 584.755,794.976C584.755,790.252 586.751,786.291 590.742,783.094C594.734,779.897 600.11,778.298 606.871,778.298C614.161,778.298 619.903,780.009 624.098,783.43C628.293,786.851 630.289,791.311 630.085,796.809L629.963,797.176L627.153,797.176C627.153,792.859 625.33,789.183 621.685,786.149C618.04,783.114 613.102,781.597 606.871,781.597C600.68,781.597 595.996,782.931 592.82,785.599C589.643,788.267 588.054,791.352 588.054,794.854C588.054,798.316 589.398,801.269 592.086,803.712C594.774,806.156 600.11,808.294 608.092,810.127C615.464,811.838 621.054,814.169 624.862,817.122C628.67,820.075 630.574,824.199 630.574,829.493C630.574,834.666 628.456,838.86 624.221,842.078C619.985,845.295 614.364,846.904 607.359,846.904C599.662,846.904 593.624,845.183 589.246,841.742C584.867,838.3 582.821,834.116 583.106,829.188L583.228,828.821L585.916,828.821C586.242,834.034 588.482,837.802 592.636,840.123C596.79,842.445 601.698,843.605 607.359,843.605C613.468,843.605 618.315,842.18 621.899,839.329C625.483,836.478 627.275,833.179 627.275,829.432Z" style="fill:black;fill-rule:nonzero;"/>
                    <path d="M699.73,843.605C707.264,843.605 713.211,841.304 717.568,836.702C721.926,832.1 724.105,825.746 724.105,817.641L724.105,800.352C721.824,804.792 718.597,808.274 714.422,810.799C710.248,813.324 705.574,814.587 700.402,814.587C692.745,814.587 686.473,811.787 681.586,806.187C676.698,800.587 674.255,793.816 674.255,785.874C674.255,777.443 676.759,770.255 681.769,764.308C686.778,758.362 693.152,755.389 700.89,755.389C708.873,755.389 715.369,758.097 720.379,763.514C725.388,768.931 727.893,776.69 727.893,786.79L727.893,817.519C727.893,826.642 725.317,833.82 720.165,839.054C715.013,844.287 708.201,846.904 699.73,846.904C696.553,846.904 693.376,846.578 690.199,845.927C687.023,845.275 683.826,844.318 680.608,843.055L681.586,839.573C684.64,840.958 687.552,841.976 690.322,842.628C693.091,843.279 696.227,843.605 699.73,843.605ZM700.402,811.349C706.429,811.349 711.48,809.608 715.552,806.126C719.625,802.643 722.476,798.479 724.105,793.632L724.105,786.851C724.105,777.81 721.977,770.855 717.721,765.988C713.465,761.122 707.936,758.688 701.135,758.688C694.293,758.688 688.733,761.417 684.457,766.874C680.18,772.332 678.042,778.665 678.042,785.874C678.042,792.797 680.079,798.774 684.151,803.804C688.224,808.834 693.641,811.349 700.402,811.349Z" style="fill:black;fill-rule:nonzero;"/>
                </g>
                <g id="Nexus 5" transform="matrix(0.125338,0,0,0.125338,381.685,57.7018)">
                    <path d="M372.768,845.621L369.469,845.621L312.409,762.781L312.043,762.903L312.043,845.621L308.683,845.621L308.683,756.672L312.043,756.672L369.102,839.329L369.469,839.207L369.469,756.672L372.768,756.672L372.768,845.621Z" style="fill:black;fill-rule:nonzero;"/>
                    <path d="M418.037,846.904C410.502,846.904 403.996,843.86 398.518,837.771C393.04,831.682 390.301,824.117 390.301,815.076L390.301,811.166C390.301,801.676 392.948,793.826 398.243,787.615C403.538,781.404 410.074,778.298 417.853,778.298C425.307,778.298 431.385,780.742 436.089,785.629C440.793,790.517 443.145,797.074 443.145,805.301L443.145,810.371L393.6,810.371L393.6,815.076C393.6,823.058 395.942,829.809 400.626,835.327C405.309,840.846 411.113,843.605 418.037,843.605C422.965,843.605 427.088,842.933 430.408,841.589C433.727,840.245 436.568,838.229 438.93,835.541L440.702,838.107C438.095,840.999 434.928,843.188 431.202,844.674C427.475,846.161 423.087,846.904 418.037,846.904ZM417.853,781.597C411.296,781.597 405.839,783.99 401.481,788.776C397.123,793.561 394.659,799.538 394.089,806.706L394.272,807.073L439.846,807.073L439.846,805.056C439.846,798.336 437.81,792.747 433.737,788.287C429.664,783.827 424.37,781.597 417.853,781.597Z" style="fill:black;fill-rule:nonzero;"/>
                    <path d="M477.906,808.844L498.983,779.52L503.137,779.52L479.922,811.715L504.359,845.621L500.266,845.621L477.845,814.587L455.486,845.621L451.393,845.621L475.829,811.715L452.614,779.52L456.769,779.52L477.906,808.844Z" style="fill:black;fill-rule:nonzero;"/>
                    <path d="M562.701,833.77C560.624,837.964 557.661,841.202 553.813,843.483C549.964,845.764 545.29,846.904 539.792,846.904C532.991,846.904 527.665,844.491 523.817,839.665C519.968,834.839 518.044,827.355 518.044,817.214L518.044,779.52L521.342,779.52L521.342,817.336C521.342,826.296 522.992,832.914 526.291,837.191C529.59,841.467 534.049,843.605 539.67,843.605C546.553,843.605 551.837,841.915 555.523,838.535C559.209,835.154 561.561,830.674 562.579,825.095L562.579,779.52L565.939,779.52L565.939,845.621L563.19,845.621L562.701,833.77Z" style="fill:black;fill-rule:nonzero;"/>
                    <path d="M627.275,829.432C627.275,825.929 625.778,822.742 622.785,819.871C619.791,817 614.568,814.75 607.115,813.121C599.255,811.451 593.563,809.302 590.04,806.675C586.517,804.048 584.755,800.149 584.755,794.976C584.755,790.252 586.751,786.291 590.742,783.094C594.734,779.897 600.11,778.298 606.871,778.298C614.161,778.298 619.903,780.009 624.098,783.43C628.293,786.851 630.289,791.311 630.085,796.809L629.963,797.176L627.153,797.176C627.153,792.859 625.33,789.183 621.685,786.149C618.04,783.114 613.102,781.597 606.871,781.597C600.68,781.597 595.996,782.931 592.82,785.599C589.643,788.267 588.054,791.352 588.054,794.854C588.054,798.316 589.398,801.269 592.086,803.712C594.774,806.156 600.11,808.294 608.092,810.127C615.464,811.838 621.054,814.169 624.862,817.122C628.67,820.075 630.574,824.199 630.574,829.493C630.574,834.666 628.456,838.86 624.221,842.078C619.985,845.295 614.364,846.904 607.359,846.904C599.662,846.904 593.624,845.183 589.246,841.742C584.867,838.3 582.821,834.116 583.106,829.188L583.228,828.821L585.916,828.821C586.242,834.034 588.482,837.802 592.636,840.123C596.79,842.445 601.698,843.605 607.359,843.605C613.468,843.605 618.315,842.18 621.899,839.329C625.483,836.478 627.275,833.179 627.275,829.432Z" style="fill:black;fill-rule:nonzero;"/>
                    <path d="M680.73,805.179L685.495,756.672L727.649,756.672L727.649,759.91L688.489,759.91L684.762,797.664C687.328,795.099 690.128,793.164 693.162,791.861C696.197,790.557 700.666,789.824 706.572,789.661C713.659,789.458 719.503,791.881 724.105,796.931C728.707,801.982 731.009,808.763 731.009,817.275C731.009,826.357 728.87,833.566 724.594,838.901C720.318,844.237 713.699,846.904 704.739,846.904C697.53,846.904 691.543,844.858 686.778,840.764C682.013,836.671 679.732,830.613 679.936,822.59L680.058,822.223L682.93,822.223C682.93,829.228 684.884,834.543 688.794,838.168C692.704,841.793 698.019,843.605 704.739,843.605C712.64,843.605 718.434,841.426 722.12,837.068C725.806,832.711 727.649,826.153 727.649,817.397C727.649,809.903 725.806,803.998 722.12,799.68C718.434,795.363 713.272,793.205 706.633,793.205C700.117,793.205 694.995,794.294 691.269,796.473C687.542,798.652 684.864,801.88 683.235,806.156L680.73,805.179Z" style="fill:black;fill-rule:nonzero;"/>
                </g>
            </g>
            <g transform="matrix(2.87928,0,0,2.87928,154.553,345.673)">
                <clipPath id="_clip1">
                    <rect x="-25.893" y="-92.271" width="725.876" height="224.712"/>
                </clipPath>
                <g clip-path="url(#_clip1)">
                    <g>
                        <g id="Nexus 9" transform="matrix(0.107725,7.44305e-20,7.44305e-20,0.107421,-78.0837,-117.456)">
                            <clipPath id="_clip2">
                                <rect x="484.482" y="234.454" width="1397.95" height="2091.87"/>
                            </clipPath>
                            <g clip-path="url(#_clip2)">
                                <g>
                                    <g id="Power" transform="matrix(1,5.30568e-34,7.81884e-35,0.770271,-19.5768,166.253)">
                                        <path d="M1892.66,639.25L1892.04,639.25L1892.04,526.66L1892.66,526.66C1897.82,526.66 1902,530.843 1902,536.001L1902,629.909C1902,635.068 1897.82,639.25 1892.66,639.25" style="fill:rgb(40,38,38);fill-rule:nonzero;"/>
                                    </g>
                                    <g id="Volume" transform="matrix(1,3.27404e-34,4.99474e-34,1.02884,-18.7673,2.49803)">
                                        <path d="M1891.85,922.218L1891.85,698.035C1897.01,698.035 1901.19,702.217 1901.19,707.376L1901.19,912.877C1901.19,918.036 1897.01,922.218 1891.85,922.218" style="fill:rgb(40,38,38);fill-rule:nonzero;"/>
                                    </g>
                                    <g id="Body" transform="matrix(1.00663,-4.89795e-34,5.60893e-34,1.00825,-26.4398,8.17313)">
                                        <path d="M1822.4,2299.18L577.968,2299.18C539.082,2299.18 507.558,2267.65 507.558,2228.77L507.558,294.839C507.558,255.952 539.082,224.429 577.968,224.429L1822.4,224.429C1861.28,224.429 1892.81,255.952 1892.81,294.839L1892.81,2228.77C1892.81,2267.65 1861.28,2299.18 1822.4,2299.18" style="fill:url(#_Linear3);fill-rule:nonzero;"/>
                                    </g>
                                    <g id="Light" transform="matrix(0.730354,9.62965e-35,9.62965e-35,0.730354,305.812,591.751)">
                                        <path d="M1212.14,2206.54C1212.14,2213.14 1206.79,2218.49 1200.18,2218.49C1193.58,2218.49 1188.23,2213.14 1188.23,2206.54C1188.23,2199.93 1193.58,2194.58 1200.18,2194.58C1206.79,2194.58 1212.14,2199.93 1212.14,2206.54" style="fill:url(#_Radial4);fill-rule:nonzero;"/>
                                    </g>
                                    <g id="camera1" transform="matrix(1.6067,5.77779e-34,0,1.6067,-745.969,-151.474)">
                                        <path d="M1210.81,313.105C1210.81,318.975 1206.05,323.733 1200.18,323.733C1194.31,323.733 1189.55,318.975 1189.55,313.105C1189.55,307.235 1194.31,302.477 1200.18,302.477C1206.05,302.477 1210.81,307.235 1210.81,313.105" style="fill:rgb(19,19,19);fill-rule:nonzero;"/>
                                    </g>
                                    <g id="camera2" transform="matrix(0.411674,4.81482e-35,4.81482e-35,0.411674,688.286,222.697)">
                                        <path d="M1222.1,313.105C1222.1,325.211 1212.29,335.025 1200.18,335.025C1188.08,335.025 1178.26,325.211 1178.26,313.105C1178.26,300.999 1188.08,291.185 1200.18,291.185C1212.29,291.185 1222.1,300.999 1222.1,313.105" style="fill:rgb(60,59,58);fill-rule:nonzero;"/>
                                    </g>
                                    <g id="camera3" transform="matrix(0.110311,-1.38667e-31,6.16298e-33,0.110311,1049.98,317.055)">
                                        <path d="M1222.1,313.105C1222.1,325.211 1212.29,335.025 1200.18,335.025C1188.08,335.025 1178.26,325.211 1178.26,313.105C1178.26,300.999 1188.08,291.185 1200.18,291.185C1212.29,291.185 1222.1,300.999 1222.1,313.105" style="fill:rgb(111,110,108);fill-rule:nonzero;"/>
                                    </g>
                                    <g id="screen1" transform="matrix(1.00786,9.27058e-35,5.64218e-34,0.962565,-27.3608,65.8234)">
                                        <rect x="584.427" y="398.948" width="1230.4" height="1725.71" style="fill:rgb(3,169,244);fill-rule:nonzero;"/>
                                    </g>
                                    <g id="screeneffect" transform="matrix(1.00786,1.92593e-34,4.81482e-34,0.962565,-26.6881,65.8234)">
                                        <path d="M1814.83,2124.66L584.427,2124.66L584.427,1261.8L1814.83,398.948L1814.83,2124.66Z" style="fill:rgb(3,155,229);fill-rule:nonzero;"/>
                                    </g>
                                    <g id="SpeakerTop" transform="matrix(9.82204,-6.80553e-18,4.20064e-19,-0.60797,-4155.91,314.56)">
                                        <path d="M565,117.79L522,117.79L523.075,87L563.925,87L565,117.79Z" style="fill:rgb(3,3,3);"/>
                                    </g>
                                    <g id="SpeakerBottom" transform="matrix(9.82204,-6.80553e-18,-3.47512e-19,0.502963,-4156.58,2252.24)">
                                        <path d="M565,117.79L522,117.79L523.075,87L563.925,87L565,117.79Z" style="fill:rgb(3,3,3);"/>
                                    </g>
                                </g>
                            </g>
                        </g>
                        <g id="Nexus 7 2013" transform="matrix(0.127632,0,0,0.124894,-10.4138,-158.243)">
                            <g>
                                <g id="Power1" transform="matrix(1,0,0,1,-24.532,0)">
                                    <path d="M2181.73,935.949L2181.73,844.771C2189.71,844.771 2196.18,851.243 2196.18,859.226L2196.18,921.494C2196.18,929.477 2189.71,935.949 2181.73,935.949" style="fill:rgb(33,33,33);fill-rule:nonzero;"/>
                                </g>
                                <g id="Volume1" transform="matrix(1,0,0,1,-24.532,0)">
                                    <path d="M2181.73,1215.04L2181.73,1013.78C2189.71,1013.78 2196.18,1020.26 2196.18,1028.24L2196.18,1200.59C2196.18,1208.57 2189.71,1215.04 2181.73,1215.04" style="fill:rgb(33,33,33);fill-rule:nonzero;"/>
                                </g>
                                <g id="Body1" transform="matrix(0.996718,0,0,1,-2.21965,-1.13687e-13)">
                                    <path d="M2112.52,2327.45L1363.63,2327.45C1328.31,2327.45 1299.68,2301.6 1299.68,2266.28L1299.68,800.955C1299.68,765.639 1328.31,750.913 1363.63,750.913L2112.52,750.913C2147.83,750.913 2176.46,765.639 2176.46,800.955L2176.46,2266.28C2176.46,2301.6 2147.83,2327.45 2112.52,2327.45" style="fill:url(#_Linear5);fill-rule:nonzero;"/>
                                </g>
                                <g id="Camera1" transform="matrix(0.82761,-1.33632e-19,0,0.827953,317.353,177.3)">
                                    <path d="M1951.64,851.443C1951.64,860.194 1944.55,867.288 1935.79,867.288C1927.04,867.288 1919.95,860.194 1919.95,851.443C1919.95,842.692 1927.04,835.598 1935.79,835.598C1944.55,835.598 1951.64,842.692 1951.64,851.443" style="fill:rgb(57,57,59);fill-rule:nonzero;"/>
                                </g>
                                <g id="Camera2" transform="matrix(1.20394,0,0,1.2084,-411.146,-146.626)">
                                    <path d="M1942.47,851.443C1942.47,855.128 1939.48,858.115 1935.79,858.115C1932.11,858.115 1929.12,855.128 1929.12,851.443C1929.12,847.758 1932.11,844.771 1935.79,844.771C1939.48,844.771 1942.47,847.758 1942.47,851.443" style="fill:rgb(36,34,47);fill-rule:nonzero;"/>
                                </g>
                                <g id="Light1" transform="matrix(1,0,0,1,-7.92478,-11.1233)">
                                    <path d="M1745.45,2235.39C1745.45,2239.46 1742.14,2242.76 1738.07,2242.76C1734,2242.76 1730.7,2239.46 1730.7,2235.39C1730.7,2231.32 1734,2228.01 1738.07,2228.01C1742.14,2228.01 1745.45,2231.32 1745.45,2235.39" style="fill:url(#_Radial6);fill-rule:nonzero;"/>
                                </g>
                                <g id="wallpaper">
                                    <g id="background1" transform="matrix(2.73173,0,0,2.76581,-530.361,749.716)">
                                        <rect x="693" y="67.412" width="269" height="432.588" style="fill:rgb(0,172,193);"/>
                                    </g>
                                    <g id="Background2" transform="matrix(2.95,0,0,2.80344,-392.236,748.901)">
                                        <path d="M844,319.129L625.939,369.718L761.977,66.797L844,66.797L844,319.129Z" style="fill:rgb(0,230,118);"/>
                                    </g>
                                    <g id="Background3" transform="matrix(2.72118,0,0,2.78083,-238.289,750.913)">
                                        <path d="M622,372L588.354,380L588.354,441L622,372Z" style="fill:rgb(233,30,99);"/>
                                    </g>
                                    <g id="Background4" transform="matrix(2.72118,0,0,2.78083,-238.289,750.913)">
                                        <path d="M858.397,319L622,372L588.354,439L588.354,496.869L858.397,496.869L858.397,319Z" style="fill:rgb(252,223,7);"/>
                                    </g>
                                </g>
                            </g>
                        </g>
                        <g id="Nexus 6" transform="matrix(0.193986,0,0,0.188147,-58.4492,-307.213)">
                            <clipPath id="_clip7">
                                <rect x="1818.49" y="1505.26" width="421.948" height="831.498"/>
                            </clipPath>
                            <g clip-path="url(#_clip7)">
                                <g>
                                    <g id="Volume2" transform="matrix(1.33998,0,0,0.714737,-756.782,641.747)">
                                        <path d="M2230.35,1827.1L2230.35,1690.58C2233.89,1690.58 2236.77,1693.46 2236.77,1697L2236.77,1820.68C2236.77,1824.23 2233.89,1827.1 2230.35,1827.1" style="fill:rgb(1,0,1);fill-rule:nonzero;"/>
                                    </g>
                                    <g id="Power2" transform="matrix(1,0,0,1,3.60564,-79.7434)">
                                        <path d="M2230.35,1898.57L2230.35,1860.03C2233.89,1860.03 2236.77,1862.9 2236.77,1866.45L2236.77,1892.15C2236.77,1895.7 2233.89,1898.57 2230.35,1898.57" style="fill:black;fill-rule:nonzero;"/>
                                    </g>
                                    <g id="Body2" transform="matrix(1.78937,0,0,1.88967,-46.0369,1505.26)">
                                        <path d="M1276,30.292C1276,9.246 1255.52,1.954 1233.97,1.954C1233.97,1.954 1183.4,0 1157.39,0C1132.24,0 1085.94,1.954 1085.94,1.954C1063.33,1.954 1042,10.079 1042,32.153L1042,402.094C1042,426.279 1062.08,438.069 1086.85,438.069C1086.85,438.069 1132.87,440.023 1157.39,440.023C1182.57,440.023 1231.92,438.069 1231.92,438.069C1256.26,438.069 1276,426.617 1276,402.849L1276,30.292Z" style="fill:url(#_Linear8);"/>
                                    </g>
                                    <g id="SpeakerTop1" transform="matrix(0.918183,0,0,1.41051,168.987,-633.653)">
                                        <path d="M2086.72,1539L1963.85,1539C1961.36,1539 1959.33,1536.98 1959.33,1534.48C1959.33,1531.99 1961.36,1529.97 1963.85,1529.97L2086.72,1529.97C2089.22,1529.97 2091.24,1531.99 2091.24,1534.48C2091.24,1536.98 2089.22,1539 2086.72,1539" style="fill:rgb(64,64,64);fill-rule:nonzero;stroke-width:3.84px;stroke:rgb(34,34,34);"/>
                                    </g>
                                    <g id="Camera11" transform="matrix(0.764776,0,0,0.761604,500.192,362.125)">
                                        <path d="M2157,1534.48C2157,1538.7 2153.58,1542.11 2149.37,1542.11C2145.16,1542.11 2141.74,1538.7 2141.74,1534.48C2141.74,1530.27 2145.16,1526.85 2149.37,1526.85C2153.58,1526.85 2157,1530.27 2157,1534.48" style="fill:rgb(55,55,55);fill-rule:nonzero;"/>
                                    </g>
                                    <g id="Camera21" transform="matrix(0.530095,0,0,0.527897,1004.61,720.744)">
                                        <path d="M2157,1534.48C2157,1538.7 2153.58,1542.11 2149.37,1542.11C2145.16,1542.11 2141.74,1538.7 2141.74,1534.48C2141.74,1530.27 2145.16,1526.85 2149.37,1526.85C2153.58,1526.85 2157,1530.27 2157,1534.48" style="fill:rgb(59,66,86);fill-rule:nonzero;"/>
                                    </g>
                                    <g id="Speakerbottom" transform="matrix(0.920235,0,0,1,164.45,-2.40372)">
                                        <path d="M2083.65,2308.96L1967.75,2308.96C1964.86,2308.96 1962.52,2306.61 1962.52,2303.72C1962.52,2300.83 1964.86,2298.49 1967.75,2298.49L2083.65,2298.49C2086.54,2298.49 2088.88,2300.83 2088.88,2303.72C2088.88,2306.61 2086.54,2308.96 2083.65,2308.96" style="fill:rgb(64,64,64);fill-rule:nonzero;stroke-width:3.84px;stroke:rgb(34,34,34);"/>
                                    </g>
                                    <g id="Screen" transform="matrix(1.80712,0,0,1.85262,-85.7561,1510.23)">
                                        <rect x="1063" y="32" width="214" height="384" style="fill:rgb(63,81,181);"/>
                                    </g>
                                    <g id="Screeneffect" transform="matrix(1.80712,0,0,1.85262,-85.7561,1510.23)">
                                        <path d="M1277,32L1063,215.337L1063,416L1277,416L1277,32Z" style="fill:rgb(57,73,171);"/>
                                    </g>
                                </g>
                            </g>
                        </g>
                        <g id="Nexus 51" transform="matrix(0.195582,0,0,0.195582,17.403,-323.635)">
                            <g>
                                <g id="Volume3" transform="matrix(2.89517,0,0,1,-3817.12,3.55154)">
                                    <path d="M2017.86,1880.65C2016.31,1880.65 2015.05,1879.39 2015.05,1877.84L2015.05,1770.66C2015.05,1769.11 2016.31,1767.85 2017.86,1767.85L2017.86,1880.65Z" style="fill:rgb(1,0,1);fill-rule:nonzero;"/>
                                </g>
                                <g id="Power3" transform="matrix(2.37835,0,0,1,-3271.91,3.55154)">
                                    <path d="M2368.58,1769.96L2368.58,1723.58C2370.71,1723.58 2372.44,1725.31 2372.44,1727.44L2372.44,1766.1C2372.44,1768.23 2370.71,1769.96 2368.58,1769.96" style="fill:rgb(1,0,1);fill-rule:nonzero;"/>
                                </g>
                                <path id="Body3" d="M2326.62,1645.99C2326.62,1645.99 2241.78,1638.03 2193.15,1638.03C2144.52,1638.03 2059.68,1645.99 2059.68,1645.99C2059.68,1645.99 2018.57,1647.51 2019.62,1680.89L2019.88,2290.02C2019.88,2290.02 2016.7,2319 2051.99,2324.91C2051.99,2324.91 2110.1,2333.39 2193.15,2331.66C2276.2,2333.39 2334.32,2324.91 2334.32,2324.91C2369.61,2319 2366.43,2290.02 2366.43,2290.02L2366.69,1680.89C2367.73,1647.51 2326.62,1645.99 2326.62,1645.99Z" style="fill:url(#_Linear9);fill-rule:nonzero;"/>
                                <g id="Speaker" transform="matrix(1.11045,0,0,1.11045,-242.242,-182.374)">
                                    <path d="M2201.19,1669.85C2201.19,1674.29 2197.59,1677.89 2193.15,1677.89C2188.71,1677.89 2185.11,1674.29 2185.11,1669.85C2185.11,1665.41 2188.71,1661.82 2193.15,1661.82C2197.59,1661.82 2201.19,1665.41 2201.19,1669.85" style="fill:rgb(66,66,66);fill-rule:nonzero;"/>
                                </g>
                                <g id="Screen1" transform="matrix(0.690633,0,0,0.631261,512.151,956.243)">
                                    <rect x="2205" y="1172" width="458" height="889" style="fill:rgb(233,30,99);"/>
                                </g>
                                <g id="Screen Effect" transform="matrix(0.690633,0,0,0.631261,512.151,956.243)">
                                    <path d="M2663,1172L2205,1629.63L2205,2061L2663,2061L2663,1172Z" style="fill:rgb(194,24,91);"/>
                                </g>
                                <g id="Camera" transform="matrix(1.66897,0,0,1.66897,-1404.38,-1112.56)">
                                    <path d="M2089.04,1669.85C2089.04,1671.32 2087.85,1672.51 2086.39,1672.51C2084.92,1672.51 2083.73,1671.32 2083.73,1669.85C2083.73,1668.39 2084.92,1667.2 2086.39,1667.2C2087.85,1667.2 2089.04,1668.39 2089.04,1669.85" style="fill:rgb(66,66,66);fill-rule:nonzero;"/>
                                </g>
                            </g>
                        </g>
                        <g id="MotoX2014" transform="matrix(1,0,0,1.39066,-54.8748,140.494)">
                            <clipPath id="_clip10">
                                <rect x="574.604" y="-105.219" width="71.893" height="99.428"/>
                            </clipPath>
                            <g clip-path="url(#_clip10)">
                                <g>
                                    <g id="Power4" transform="matrix(0.188449,0,0,0.193351,247.362,-104.582)">
                                        <path d="M2118,124.627C2118,123.176 2116.82,122 2115.37,122L2113.63,122L2113.63,153L2115.37,153C2116.82,153 2118,151.824 2118,150.373L2118,124.627Z" style="fill:rgb(75,75,75);"/>
                                    </g>
                                    <g id="Volume4" transform="matrix(0.188449,0,0,0.370589,247.362,-115.966)">
                                        <path d="M2118,124.627C2118,123.176 2116.82,122 2115.37,122L2113.63,122L2113.63,153L2115.37,153C2116.82,153 2118,151.824 2118,150.373L2118,124.627Z" style="fill:rgb(75,75,75);"/>
                                    </g>
                                    <g id="Body4" transform="matrix(0.342324,0,0,0.347309,-42.6052,-120.055)">
                                        <path d="M2012,63.51C2012,51.631 1995.37,43.438 1978.61,43.438C1978.61,43.438 1930.82,42.719 1907.45,42.719C1884.44,42.719 1838.4,43.438 1838.4,43.438C1820.53,43.438 1803,52.267 1803,64.933L1803,306.872C1803,319.093 1816.98,329 1834.22,329L1980.53,329C1997.91,329 2012,319.015 2012,306.698L2012,63.51Z" style="fill:url(#_Linear11);"/>
                                    </g>
                                    <g id="Screen2" transform="matrix(0.349176,0,0,0.248993,-98.275,-105.19)">
                                        <rect x="1936" y="38" width="186" height="332" style="fill:rgb(0,150,136);"/>
                                    </g>
                                    <g id="Screen11" transform="matrix(0.349176,0,0,0.248993,-98.275,-105.19)">
                                        <path d="M2122,38L1936,204L1936,370L2122,370L2122,38Z" style="fill:rgb(0,121,107);"/>
                                    </g>
                                    <g id="Circle2?" transform="matrix(0.347309,0,0,0.249745,-43.6056,-105.468)">
                                        <circle cx="1955.5" cy="380.5" r="2.5" style="fill:rgb(76,75,75);"/>
                                    </g>
                                    <g id="Circle?" transform="matrix(0.347309,0,0,0.249745,-94.3127,-105.468)">
                                        <circle cx="1955.5" cy="380.5" r="2.5" style="fill:rgb(76,75,75);"/>
                                    </g>
                                    <g id="SpeakerLow" transform="matrix(0.347309,0,0,0.249745,-94.139,-105.468)">
                                        <path d="M2061,385C2061,383.343 2059.66,382 2058,382L1998,382C1996.34,382 1995,383.343 1995,385C1995,386.657 1996.34,388 1998,388L2058,388C2059.66,388 2061,386.657 2061,385Z" style="fill:rgb(117,120,112);"/>
                                    </g>
                                    <g id="SpeakerHigh" transform="matrix(0.347309,0,0,0.249745,-94.139,-198.024)">
                                        <path d="M2061,385C2061,383.343 2059.66,382 2058,382L1998,382C1996.34,382 1995,383.343 1995,385C1995,386.657 1996.34,388 1998,388L2058,388C2059.66,388 2061,386.657 2061,385Z" style="fill:rgb(117,120,112);"/>
                                    </g>
                                    <g id="Thing1" transform="matrix(0.347309,0,0,0.249745,-93.9654,-105.718)">
                                        <circle cx="1967.5" cy="15.5" r="4.5" style="fill:rgb(1,0,1);"/>
                                    </g>
                                    <g id="Thing2" transform="matrix(0.347309,0,0,0.249745,-50.8991,-105.344)">
                                        <circle cx="1967.5" cy="15.5" r="4.5" style="fill:rgb(1,0,1);"/>
                                    </g>
                                    <g id="Camera?" transform="matrix(0.212244,0,0,0.152622,208.415,-104.275)">
                                        <circle cx="1967.5" cy="15.5" r="4.5" style="fill:rgb(75,75,75);"/>
                                    </g>
                                    <g id="Something" transform="matrix(0.303895,0,0,0.180371,-7.44202,-104.4)">
                                        <path d="M1989,14.5C1989,12.015 1986.93,10 1984.38,10L1977.62,10C1975.07,10 1973,12.015 1973,14.5C1973,16.985 1975.07,19 1977.62,19L1984.38,19C1986.93,19 1989,16.985 1989,14.5Z" style="fill:rgb(1,0,1);"/>
                                    </g>
                                </g>
                            </g>
                        </g>
                        <g id="LG G4" transform="matrix(1.01395,0,0,1.29089,1.13507,55.6581)">
                            <clipPath id="_clip12">
                                <rect x="615.587" y="-54.146" width="73.644" height="113.625"/>
                            </clipPath>
                            <g clip-path="url(#_clip12)">
                                <g>
                                    <g transform="matrix(0.342529,0,0,0.346486,-44.4675,-119.362)">
                                        <path d="M2142,203.076C2142,195.302 2137.88,192.106 2127.87,192.106C2127.87,192.106 2069.88,188.348 2034.2,188.223C1997.92,188.096 1939.45,192.106 1939.45,192.106C1930.36,192.106 1927,194.718 1927,201.772L1927,503.311C1927,510.301 1931.3,512.862 1940.3,512.862C1940.3,512.862 2002.75,516.155 2033.98,516.155C2065.2,516.155 2128.66,512.862 2128.66,512.862C2138.24,512.862 2142,509.939 2142,502.501L2142,203.076Z" style="fill:url(#_Linear13);"/>
                                    </g>
                                    <g transform="matrix(0.342529,0,0,0.269047,-67.8152,-136.454)">
                                        <circle cx="2050" cy="323" r="4" style="fill:rgb(150,150,150);"/>
                                    </g>
                                    <g transform="matrix(0.171265,0,0,0.134524,276.427,-92.86)">
                                        <circle cx="2050" cy="323" r="4" style="fill:rgb(94,94,94);"/>
                                    </g>
                                    <g transform="matrix(0.342529,0,0,0.269047,-68.1577,-136.454)">
                                        <path d="M2081,322.468C2081,320.553 2079.45,319 2077.53,319L2068.47,319C2066.55,319 2065,320.553 2065,322.468L2065,323.532C2065,325.447 2066.55,327 2068.47,327L2077.53,327C2079.45,327 2081,325.447 2081,323.532L2081,322.468Z" style="fill:rgb(1,0,1);"/>
                                    </g>
                                    <g transform="matrix(0.344286,0,0,0.269047,-71.7969,-136.185)">
                                        <rect x="2006" y="336" width="195" height="349" style="fill:url(#_Linear14);"/>
                                    </g>
                                    <g id="SpeakerLow1" transform="matrix(0.186834,0,0,0.158388,273.509,-110.595)">
                                        <path d="M2061,385C2061,383.343 2059.66,382 2058,382L1998,382C1996.34,382 1995,383.343 1995,385C1995,386.657 1996.34,388 1998,388L2058,388C2059.66,388 2061,386.657 2061,385Z" style="fill:rgb(115,115,115);"/>
                                        <path d="M2061,385C2061,383.343 2059.66,382 2058,382L1998,382C1996.34,382 1995,383.343 1995,385C1995,386.657 1996.34,388 1998,388L2058,388C2059.66,388 2061,386.657 2061,385Z" style="fill:rgb(115,115,115);"/>
                                    </g>
                                    <g transform="matrix(0.342529,0,0,0.269047,-54.0583,-136.119)">
                                        <path d="M2010.5,472L1964.5,525L1964.5,684.752L2160.5,684.752L2160.5,603.757L2010.5,472Z" style="fill:rgb(183,42,74);"/>
                                    </g>
                                    <g transform="matrix(0.342529,0,0,0.269047,-54.0583,-136.119)">
                                        <path d="M2118,566L2115,563L2110,684.752L2115,684.752L2118,566Z" style="fill:rgb(235,93,135);"/>
                                    </g>
                                </g>
                            </g>
                        </g>
                    </g>
                </g>
            </g>
        </g>
    </g>
    <defs>
        <linearGradient id="_Linear3" x1="0" y1="0" x2="1" y2="0" gradientUnits="userSpaceOnUse" gradientTransform="matrix(1391.94,2066.32,-2063.82,1393.63,507.558,232.852)"><stop offset="0%" style="stop-color:rgb(39,39,39);stop-opacity:1"/><stop offset="100%" style="stop-color:rgb(19,19,19);stop-opacity:1"/></linearGradient>
        <radialGradient id="_Radial4" cx="0" cy="0" r="1" gradientUnits="userSpaceOnUse" gradientTransform="matrix(11.9565,0,0,11.956,1200.18,2206.54)"><stop offset="0%" style="stop-color:white;stop-opacity:1"/><stop offset="56%" style="stop-color:white;stop-opacity:0.929412"/><stop offset="100%" style="stop-color:white;stop-opacity:0.65098"/><stop offset="100%" style="stop-color:white;stop-opacity:0.65098"/></radialGradient>
        <linearGradient id="_Linear5" x1="0" y1="0" x2="1" y2="0" gradientUnits="userSpaceOnUse" gradientTransform="matrix(886.824,1573.43,-1544.75,903.289,1297.49,750.913)"><stop offset="0%" style="stop-color:rgb(40,40,40);stop-opacity:1"/><stop offset="100%" style="stop-color:rgb(1,0,1);stop-opacity:1"/></linearGradient>
        <radialGradient id="_Radial6" cx="0" cy="0" r="1" gradientUnits="userSpaceOnUse" gradientTransform="matrix(7.3745,0,0,7.375,1738.07,2235.39)"><stop offset="0%" style="stop-color:white;stop-opacity:1"/><stop offset="56%" style="stop-color:white;stop-opacity:0.929412"/><stop offset="100%" style="stop-color:white;stop-opacity:0.65098"/><stop offset="100%" style="stop-color:white;stop-opacity:0.65098"/></radialGradient>
        <linearGradient id="_Linear8" x1="0" y1="0" x2="1" y2="0" gradientUnits="userSpaceOnUse" gradientTransform="matrix(237.837,439.242,-449.899,232.203,1040.22,0.336178)"><stop offset="0%" style="stop-color:rgb(40,40,40);stop-opacity:1"/><stop offset="100%" style="stop-color:rgb(19,19,19);stop-opacity:1"/></linearGradient>
        <linearGradient id="_Linear9" x1="0" y1="0" x2="1" y2="0" gradientUnits="userSpaceOnUse" gradientTransform="matrix(363.09,689.609,-689.609,363.09,2013.8,1640.78)"><stop offset="0%" style="stop-color:rgb(40,40,40);stop-opacity:1"/><stop offset="100%" style="stop-color:rgb(19,19,19);stop-opacity:1"/></linearGradient>
        <linearGradient id="_Linear11" x1="0" y1="0" x2="1" y2="0" gradientUnits="userSpaceOnUse" gradientTransform="matrix(209,0,0,286.281,1803,185.86)"><stop offset="0%" style="stop-color:rgb(227,227,225);stop-opacity:1"/><stop offset="100%" style="stop-color:rgb(197,197,195);stop-opacity:1"/></linearGradient>
        <linearGradient id="_Linear13" x1="0" y1="0" x2="1" y2="0" gradientUnits="userSpaceOnUse" gradientTransform="matrix(216.039,325.641,-320.319,219.628,1927,190.328)"><stop offset="0%" style="stop-color:rgb(39,39,39);stop-opacity:1"/><stop offset="100%" style="stop-color:rgb(19,19,19);stop-opacity:1"/></linearGradient>
        <linearGradient id="_Linear14" x1="0" y1="0" x2="1" y2="0" gradientUnits="userSpaceOnUse" gradientTransform="matrix(2.5854e-14,424.393,-422.228,2.59866e-14,2100.94,303.427)"><stop offset="0%" style="stop-color:rgb(0,188,212);stop-opacity:1"/><stop offset="55%" style="stop-color:rgb(179,235,242);stop-opacity:1"/><stop offset="100%" style="stop-color:white;stop-opacity:1"/><stop offset="100%" style="stop-color:white;stop-opacity:1"/></linearGradient>
    </defs>
</svg>
